# xmcd
#
# Track frame offsets: 
#        150
#        5582
#        30227
#        48502
#        72515
#        94725
#        102105
#        104890
#        125667
#        151780
#        176292
#
# Disc length: 2602 seconds
#
# Revision: 3
# Processed by: cddbd v1.5.1PL0 Copyright (c) Steve Scherf et al.
# Submitted via: ExactAudioCopy v0.95b2
#
DISCID=890a280b
DTITLE=Vow Wow - Cyclone
DYEAR=1985
DGENRE=Hard Rock
TTITLE0=Premonition
TTITLE1=Hurricane
TTITLE2=Hell-Raisers Wanted
TTITLE3=Love Walks
TTITLE4=U.S.A.
TTITLE5=Need Your Love
TTITLE6=Eclipse
TTITLE7=Siren Song
TTITLE8=Shake Your Body
TTITLE9=Rock Your Cradle
TTITLE10=You Know What I Mean
EXTD=
EXTT0=
EXTT1=
EXTT2=
EXTT3=
EXTT4=
EXTT5=
EXTT6=
EXTT7=
EXTT8=
EXTT9=
EXTT10=
PLAYORDER=
